<?xml version="1.0" encoding="UTF-8" standalone="no"?>
<!-- Created with Inkscape (http://www.inkscape.org/) -->

<svg
   xmlns:dc="http://purl.org/dc/elements/1.1/"
   xmlns:cc="http://creativecommons.org/ns#"
   xmlns:rdf="http://www.w3.org/1999/02/22-rdf-syntax-ns#"
   xmlns:svg="http://www.w3.org/2000/svg"
   xmlns="http://www.w3.org/2000/svg"
   xmlns:sodipodi="http://sodipodi.sourceforge.net/DTD/sodipodi-0.dtd"
   xmlns:inkscape="http://www.inkscape.org/namespaces/inkscape"
   width="85.773376mm"
   height="85.860947mm"
   viewBox="0 0 85.773376 85.860947"
   version="1.1"
   id="svg8"
   inkscape:version="0.92.4 (5da689c313, 2019-01-14)"
   sodipodi:docname="naamani.svg">
  <defs
     id="defs2" />
  <sodipodi:namedview
     id="base"
     pagecolor="#ffffff"
     bordercolor="#666666"
     borderopacity="1.0"
     inkscape:pageopacity="0.0"
     inkscape:pageshadow="2"
     inkscape:zoom="1.979899"
     inkscape:cx="215.12059"
     inkscape:cy="157.83592"
     inkscape:document-units="mm"
     inkscape:current-layer="layer1"
     showgrid="false"
     inkscape:window-width="1920"
     inkscape:window-height="1001"
     inkscape:window-x="-9"
     inkscape:window-y="-9"
     inkscape:window-maximized="1" />
  <metadata
     id="metadata5">
    <rdf:RDF>
      <cc:Work
         rdf:about="">
        <dc:format>image/svg+xml</dc:format>
        <dc:type
           rdf:resource="http://purl.org/dc/dcmitype/StillImage" />
        <dc:title></dc:title>
      </cc:Work>
    </rdf:RDF>
  </metadata>
  <g
     inkscape:label="Taso 1"
     inkscape:groupmode="layer"
     id="layer1"
     style="display:inline"
     transform="translate(-4.2256147,-3.7627544)">
    <g
       id="g4543"
       transform="translate(7.0826423,-134.43657)">
      <path
         inkscape:label="#path4523"
         sodipodi:nodetypes="ccccccccccsssssc"
         inkscape:connector-curvature="0"
         id="backhair"
         d="m 82.676444,177.62488 c -2.265572,29.48256 -9.969922,42.54266 -9.969922,42.54266 l -2.32889,-11.23065 c 0.953907,8.31823 -11.528406,14.19897 -11.227407,15.12338 0,0 3.28301,-13.45451 -13.57156,-14.24634 -2.234933,4.67977 -7.014605,7.77301 -15.911541,9.59633 3.382284,-10.10279 1.149089,-5.15455 1.149089,-5.15455 -1.590256,2.23616 -5.810149,3.01549 -9.648708,2.46319 3.191434,-2.88074 6.2634,-6.75532 3.671558,-12.75265 -3.663859,1.3054 -6.502951,1.54576 -11.64215,-1.84203 3.473435,0.18637 4.268064,-10.29267 3.777953,-24.49934 -0.309067,-8.95882 0.66983,-20.61457 5.569032,-26.93643 6.025362,-7.77504 17.275125,-9.2574 27.281756,-9.2574 9.677571,0 21.646491,3.0437 27.6585,10.37987 5.258982,6.41731 5.907016,16.51299 5.192288,25.81396 z"
         style="fill:#002163;fill-opacity:1;stroke:none;stroke-width:4.42592669;stroke-linejoin:round;stroke-miterlimit:4;stroke-dasharray:none;stroke-opacity:0" />
      <path
         inkscape:label="#path4518"
         sodipodi:nodetypes="sssss"
         inkscape:connector-curvature="0"
         id="face"
         d="m 78.241071,180.39434 c 0,18.26567 -11.303687,33.9805 -27.78125,33.82887 -19.15237,-0.17624 -28.15923,-14.80725 -28.15923,-33.07292 0,-18.26566 11.14607,-33.07291 28.15923,-33.07291 17.01317,0 27.78125,14.05129 27.78125,32.31696 z"
         style="fill:#b1ab4e;fill-opacity:1;stroke:none;stroke-width:5.22699976;stroke-linejoin:round;stroke-miterlimit:4;stroke-dasharray:none;stroke-opacity:0" />
      <ellipse
         inkscape:label="#path4546"
         cx="60.135647"
         cy="186.14995"
         rx="3.8754082"
         ry="7.0158248"
         id="eyeright"
         style="fill:#002163;fill-opacity:1;stroke:none;stroke-width:4.75889492;stroke-linejoin:round;stroke-miterlimit:4;stroke-dasharray:none;stroke-opacity:0" />
      <ellipse
         inkscape:label="#path4546-6"
         cx="37.2841"
         cy="185.5486"
         rx="3.8754082"
         ry="7.0158253"
         id="eyeleft"
         style="display:inline;fill:#002163;fill-opacity:1;stroke:none;stroke-width:4.75889492;stroke-linejoin:round;stroke-miterlimit:4;stroke-dasharray:none;stroke-opacity:0" />
      <path
         inkscape:label="#path4563"
         sodipodi:nodetypes="cccc"
         inkscape:connector-curvature="0"
         id="mouth"
         d="m 41.836623,204.43635 c 0,0 5.043866,2.79431 15.387984,-0.1014 1.452185,-2.48831 -0.203973,-4.96396 -0.717906,-6.18888 0.717906,6.18888 -7.675486,6.54856 -14.670078,6.29028 z"
         style="fill:#002163;fill-opacity:1;stroke:none;stroke-width:0.2242776px;stroke-linecap:butt;stroke-linejoin:miter;stroke-opacity:1" />
      <path
         inkscape:label="#path4536"
         sodipodi:nodetypes="cccc"
         inkscape:connector-curvature="0"
         id="leftbothair"
         d="m 80.180859,163.6325 c 0.07065,12.20966 -2.922338,23.90872 -13.497113,34.34414 2.588457,-11.51619 -1.921424,-29.24342 -4.677217,-45.43583 9.250346,-4.40147 13.931602,2.78884 18.17433,11.09169 z"
         style="fill:#002163;fill-opacity:1;stroke:none;stroke-width:0.26458332px;stroke-linecap:butt;stroke-linejoin:miter;stroke-opacity:1" />
      <path
         inkscape:label="#path4538"
         sodipodi:nodetypes="cccc"
         inkscape:connector-curvature="0"
         id="middlebothair"
         d="m 65.748302,161.62798 c -5.543374,22.70386 -25.238248,28.79038 -29.80055,30.06782 9.439686,-12.65134 9.045456,-29.04217 12.428033,-38.48681 z"
         style="fill:#002163;fill-opacity:1;stroke:none;stroke-width:0.26458332px;stroke-linecap:butt;stroke-linejoin:miter;stroke-opacity:1" />
      <path
         inkscape:label="#path4540"
         sodipodi:nodetypes="cccc"
         inkscape:connector-curvature="0"
         id="middlelefthair"
         d="m 52.343115,161.60856 c -15.992767,22.04061 -37.299838,22.71329 -40.247799,22.81559 9.051827,-10.6407 18.533107,-21.04879 20.756417,-35.38801 z"
         style="fill:#002163;fill-opacity:1;stroke:none;stroke-width:0.26458332px;stroke-linecap:butt;stroke-linejoin:miter;stroke-opacity:1" />
      <path
         inkscape:label="#path4542"
         sodipodi:nodetypes="cccc"
         inkscape:connector-curvature="0"
         id="middlehair"
         d="M 69.098916,156.34514 C 60.956261,172.89923 23.990298,188.23642 3.4958753,173.12227 31.672837,165.14441 30.153715,145.51739 61.74789,147.90806 Z"
         style="fill:#002163;fill-opacity:1;stroke:none;stroke-width:0.26458332px;stroke-linecap:butt;stroke-linejoin:miter;stroke-opacity:1" />
      <path
         inkscape:label="#path4544"
         sodipodi:nodetypes="cccc"
         inkscape:connector-curvature="0"
         id="tophair"
         d="M 58.115393,142.0839 C 38.883566,129.05192 32.644971,152.78058 -2.8570276,155.26659 7.4700148,170.11542 11.146958,172.49846 29.213445,167.21117 45.195601,163.37712 56.541911,164.7009 58.115393,142.0839 Z"
         style="fill:#002163;fill-opacity:1;stroke:none;stroke-width:0.27467895px;stroke-linecap:butt;stroke-linejoin:miter;stroke-opacity:1" />
    </g>
  </g>
</svg>
